<?xml version="1.0" encoding="utf-8"?>
<!-- Generator: Adobe Illustrator 16.0.0, SVG Export Plug-In . SVG Version: 6.00 Build 0)  -->
<!DOCTYPE svg PUBLIC "-//W3C//DTD SVG 1.1//EN" "http://www.w3.org/Graphics/SVG/1.1/DTD/svg11.dtd">
<svg version="1.1" id="Calque_1" xmlns="http://www.w3.org/2000/svg" xmlns:xlink="http://www.w3.org/1999/xlink" x="0px" y="0px"
	 width="598.47px" height="112.494px" viewBox="0 0 598.47 112.494" enable-background="new 0 0 598.47 112.494"
	 xml:space="preserve">
<g>
	<g>
		<g>
			<path d="M280.836,20.882h-9.013v-6.466h31.153c9.99,0,17.533,2.352,24.881,9.503c6.856,6.759,10.386,16.066,10.386,25.666
				c0,9.209-3.625,18.124-9.994,24.884c-7.151,7.543-15.086,9.895-25.272,9.895h-31.153v-6.466h9.013V20.882z M301.605,77.897
				c8.423,0,15.379-1.372,21.354-7.74c5.094-5.388,8.229-13.225,8.229-20.67c0-7.836-3.037-16.066-8.817-21.552
				c-6.172-5.877-12.147-7.053-20.472-7.053h-14.01v57.016H301.605z"/>
			<path d="M357.832,78.289h8.621v6.074h-23.902v-6.074h8.816V39.005h-8.62v-6.075h15.085V78.289z M357.832,24.506h-6.465V14.416
				h6.465V24.506z"/>
			<path d="M379.776,89.947c3.136,6.369,9.894,10.089,16.948,10.089c5.291,0,10.679-2.448,14.205-6.27
				c4.408-4.604,5.289-9.01,5.289-15.184v-5.485c-4.017,7.935-11.853,12.638-20.964,12.638c-7.349,0-18.318-4.409-22.629-12.638
				c-1.764-3.331-3.822-8.523-3.822-14.302c0-6.173,2.059-11.561,4.409-14.891c5.192-7.348,13.519-11.854,22.434-11.854
				c8.816,0,16.752,4.604,20.572,11.854V32.931h15.087v6.075h-8.62V77.31c0,7.836-0.883,13.812-6.368,19.79
				c-5.192,5.681-12.441,8.521-19.985,8.521c-10.188,0-20.571-5.485-24.001-15.674H379.776z M416.709,58.794
				c0-11.364-9.208-20.769-20.67-20.769c-11.463,0-20.77,9.503-20.77,20.964c0,11.365,9.503,20.672,20.867,20.672
				C407.599,79.661,416.709,70.157,416.709,58.794z"/>
			<path d="M449.918,78.289h8.622v6.074h-23.905v-6.074h8.817V39.005h-8.62v-6.075h15.086V78.289z M449.918,24.506h-6.466V14.416
				h6.466V24.506z"/>
			<path d="M477.25,78.289h12.146v6.074h-18.613V39.005h-9.895v-6.075h9.895V14.416h6.467v18.515h11.363v6.075H477.25V78.289z"/>
			<path d="M540.925,73.685c-4.505,7.74-12.05,12.05-20.965,12.05c-9.403,0-18.024-4.605-22.53-12.05
				c-2.547-4.213-4.311-9.111-4.115-14.794c0-7.444,2.155-10.873,4.31-14.694c4.214-7.445,12.933-12.147,22.238-12.147
				c9.308,0,16.361,4.311,21.062,12.147V32.931h14.989v6.075h-8.521v39.284h8.521v6.074h-14.989V73.685z M499.78,58.989
				c0,11.07,9.209,20.476,20.474,20.476c11.659,0,20.769-9.209,20.769-20.67c0-11.266-9.208-20.377-20.474-20.377
				C509.185,38.417,499.78,47.626,499.78,58.989z"/>
			<path d="M574.722,78.289h8.523v6.074h-24.198v-6.074h9.209V20.49h-8.621v-6.074h15.087V78.289z"/>
		</g>
		<g>
			<path d="M228.067,84.395h-28.249L168.437,14.43h28.54L228.067,84.395z M51.219,12.311c-20.564,0-37.293,16.738-37.293,37.312
				c0,20.566,16.729,37.297,37.293,37.297c13.128,0,25.05-6.693,31.892-17.908l-2.195-1.339
				c-6.371,10.441-17.472,16.675-29.696,16.675V49.623h37.308C88.527,29.049,71.792,12.311,51.219,12.311z M134.988,84.348V49.623
				v-34.74c10.908,0,20.979,4.981,27.63,13.666l2.042-1.563c-7.141-9.328-17.956-14.676-29.672-14.676
				c-20.571,0-37.309,16.738-37.309,37.312c0,20.566,16.738,37.297,37.309,37.297c11.703,0,22.507-5.343,29.641-14.658l-2.042-1.564
				C155.943,79.372,145.883,84.348,134.988,84.348z"/>
		</g>
	</g>
	<path fill="#00A0E6" d="M252.551,41.923h-27.516V14.416h27.516V41.923z"/>
</g>
</svg>
